<?xml version="1.0" encoding="UTF-8" standalone="no"?>
<!-- Created with Inkscape (http://www.inkscape.org/) -->

<svg
   width="1920"
   height="1080"
   viewBox="0 0 1920 1080"
   version="1.1"
   id="svg1"
   xml:space="preserve"
   inkscape:version="1.3.2 (091e20e, 2023-11-25, custom)"
   sodipodi:docname="Track.svg"
   xmlns:inkscape="http://www.inkscape.org/namespaces/inkscape"
   xmlns:sodipodi="http://sodipodi.sourceforge.net/DTD/sodipodi-0.dtd"
   xmlns="http://www.w3.org/2000/svg"
   xmlns:svg="http://www.w3.org/2000/svg"><sodipodi:namedview
     id="namedview1"
     pagecolor="#505050"
     bordercolor="#eeeeee"
     borderopacity="1"
     inkscape:showpageshadow="0"
     inkscape:pageopacity="0"
     inkscape:pagecheckerboard="0"
     inkscape:deskcolor="#505050"
     inkscape:document-units="px"
     inkscape:zoom="0.37104026"
     inkscape:cx="785.62903"
     inkscape:cy="402.92124"
     inkscape:window-width="1920"
     inkscape:window-height="1009"
     inkscape:window-x="-8"
     inkscape:window-y="-8"
     inkscape:window-maximized="1"
     inkscape:current-layer="svg1"
     inkscape:clip-to-page="true"
     showgrid="false" /><defs
     id="defs1" /><path
     style="opacity:1;fill:none;fill-opacity:1;stroke:#faecff;stroke-width:3;stroke-linecap:round;stroke-dasharray:none;stroke-opacity:1;paint-order:stroke fill markers"
     d="m 206.831,125.334 68.674,-6.368 1359.745,0.034 70.05,16.467 15.1,31.201 -15.1,37.519 -70.05,12.313 -565.88,-1 -46.69,16.2345 -41.18,40.533 -11.014,304 -62.824,31.2325 h -74.576 l -36.697,-31.233 -16.816,-288.8 -27.47,-44.333 -48.072,-31.667 -293.925,3.8 -60.038,21.533 -41.941,31.667 1.373,476.267 15.45,60.8 32.964,36.733 28.843,24.067 906.493,-7.6 32.97,-6.334 31.59,-24.066 27.46,-25.334 -8.13,-198.866 20.34,-45.44 44.7,-13.194 h 177.31 l 52.19,2 h 41.86 l 14.46,28.767 -22.7,27.867 -43.96,5.066 -39.83,19 -31.14,20.267 -23.8,31.667 -2.74,117.8 15.11,19 17.85,20.266 38.46,29.134 57.68,7.6 26.1,17.733 -5.49,45.6 -20.61,12.167 L 254.903,954.5 209.578,936 166.5,917 V 153.5 Z"
     id="path1"
     sodipodi:nodetypes="ccccccccccccccccccccccccccccccccccccccccccccccccccccc" /></svg>
